<?xml version="1.0" encoding="utf-8"?>
<!-- Generator: Adobe Illustrator 16.0.0, SVG Export Plug-In . SVG Version: 6.00 Build 0)  -->
<!DOCTYPE svg PUBLIC "-//W3C//DTD SVG 1.1//EN" "http://www.w3.org/Graphics/SVG/1.1/DTD/svg11.dtd">
<svg version="1.1" id="Layer_1" xmlns="http://www.w3.org/2000/svg" xmlns:xlink="http://www.w3.org/1999/xlink" x="0px" y="0px"
	 width="16px" height="16px" viewBox="0 0 16 16" enable-background="new 0 0 16 16" xml:space="preserve">
<g enable-background="new    ">
	<path d="M15.984,12.994c0,1.654-1.342,2.997-2.997,2.997h-9.99C1.342,15.991,0,14.648,0,12.994v-9.99
		C0,1.35,1.342,0.007,2.997,0.007h9.99c1.655,0,2.997,1.343,2.997,2.997V12.994z M13.841,5.949H11.78V4.814
		c0-0.593,0.062-0.916,0.905-0.916h1.145V1.62h-1.82c-2.186,0-2.956,1.103-2.956,2.966v1.363H7.69v2.278h1.363v6.608h2.727V8.228
		h1.821L13.841,5.949z"/>
</g>
</svg>
