<?xml version="1.0" encoding="utf-8"?>
<!-- Generator: Adobe Illustrator 16.0.0, SVG Export Plug-In . SVG Version: 6.00 Build 0)  -->
<!DOCTYPE svg PUBLIC "-//W3C//DTD SVG 1.1//EN" "http://www.w3.org/Graphics/SVG/1.1/DTD/svg11.dtd">
<svg version="1.1" xmlns="http://www.w3.org/2000/svg" xmlns:xlink="http://www.w3.org/1999/xlink" x="0px" y="0px" width="16px"
	 height="16px" viewBox="0 0 16 16" enable-background="new 0 0 16 16" xml:space="preserve">
<g id="grid">
	<g>
		<g id="XMLID_1_">
			<g>
				<rect x="15" y="10" width="1" height="1"/>
				<rect x="15" y="9" width="1" height="1"/>
				<rect x="15" y="8" width="1" height="1"/>
				<rect x="15" y="6" width="1" height="1"/>
				<rect x="15" y="5" width="1" height="1"/>
				<rect x="14" y="11" width="1" height="1"/>
				<rect x="14" y="7" width="1" height="1"/>
				<rect x="14" y="4" width="1" height="1"/>
				<rect x="13" y="11" width="1" height="1"/>
				<rect x="13" y="7" width="1" height="1"/>
				<rect x="13" y="4" width="1" height="1"/>
				<rect x="12" y="11" width="1" height="1"/>
				<rect x="12" y="7" width="1" height="1"/>
				<rect x="12" y="4" width="1" height="1"/>
				<rect x="11" y="11" width="1" height="1"/>
				<rect x="11" y="7" width="1" height="1"/>
				<rect x="11" y="4" width="1" height="1"/>
				<rect x="10" y="11" width="1" height="1"/>
				<rect x="10" y="10" width="1" height="1"/>
				<rect x="10" y="9" width="1" height="1"/>
				<rect x="10" y="8" width="1" height="1"/>
				<rect x="10" y="7" width="1" height="1"/>
				<rect x="10" y="6" width="1" height="1"/>
				<rect x="10" y="5" width="1" height="1"/>
				<rect x="10" y="4" width="1" height="1"/>
				<rect x="8" y="10" width="1" height="1"/>
				<rect x="8" y="9" width="1" height="1"/>
				<rect x="8" y="7" width="1" height="1"/>
				<rect x="8" y="6" width="1" height="1"/>
				<rect x="7" y="10" width="1" height="1"/>
				<rect x="7" y="9" width="1" height="1"/>
				<rect x="7" y="7" width="1" height="1"/>
				<rect x="7" y="6" width="1" height="1"/>
				<rect x="5" y="11" width="1" height="1"/>
				<rect x="5" y="10" width="1" height="1"/>
				<rect x="5" y="9" width="1" height="1"/>
				<rect x="5" y="8" width="1" height="1"/>
				<rect x="5" y="7" width="1" height="1"/>
				<rect x="5" y="6" width="1" height="1"/>
				<rect x="4" y="8" width="1" height="1"/>
				<rect x="4" y="5" width="1" height="1"/>
				<rect x="3" y="8" width="1" height="1"/>
				<rect x="3" y="4" width="1" height="1"/>
				<rect x="2" y="8" width="1" height="1"/>
				<rect x="2" y="4" width="1" height="1"/>
				<rect x="1" y="8" width="1" height="1"/>
				<rect x="1" y="5" width="1" height="1"/>
				<rect y="11" width="1" height="1"/>
				<rect y="10" width="1" height="1"/>
				<rect y="9" width="1" height="1"/>
				<rect y="8" width="1" height="1"/>
				<rect y="7" width="1" height="1"/>
				<rect y="6" width="1" height="1"/>
			</g>
			<g>
			</g>
		</g>
	</g>
</g>
<g id="number" display="none">
</g>
</svg>
