<?xml version="1.0" encoding="utf-8"?>
<!-- Generator: Adobe Illustrator 16.0.0, SVG Export Plug-In . SVG Version: 6.00 Build 0)  -->
<!DOCTYPE svg PUBLIC "-//W3C//DTD SVG 1.1//EN" "http://www.w3.org/Graphics/SVG/1.1/DTD/svg11.dtd">
<svg version="1.1" id="Layer_1" xmlns="http://www.w3.org/2000/svg" xmlns:xlink="http://www.w3.org/1999/xlink" x="0px" y="0px"
	 width="16px" height="16px" viewBox="0 0 16 16" enable-background="new 0 0 16 16" xml:space="preserve">
<g>
	<path d="M12.688,3.068c0.125,0.125,0.232,0.295,0.32,0.509c0.09,0.214,0.135,0.411,0.135,0.589v10.668
		c0,0.178-0.062,0.33-0.188,0.455s-0.277,0.188-0.455,0.188h-9c-0.179,0-0.33-0.062-0.455-0.188s-0.188-0.277-0.188-0.455V1.166
		c0-0.178,0.062-0.33,0.188-0.455S3.321,0.523,3.5,0.523h6c0.178,0,0.375,0.045,0.59,0.134c0.213,0.09,0.383,0.197,0.508,0.321
		L12.688,3.068z M12.285,14.619V4.81H9.5c-0.18,0-0.33-0.062-0.455-0.188S8.857,4.345,8.857,4.166V1.381H3.715v13.238H12.285z
		 M9.715,1.435v2.518h2.518c-0.045-0.129-0.094-0.221-0.147-0.274L9.988,1.582C9.936,1.528,9.844,1.479,9.715,1.435z"/>
</g>
<g>
	<path d="M11.019,9.993c0,0.014-0.001,0.023-0.004,0.028c-0.173,0.722-0.533,1.307-1.082,1.755c-0.55,0.448-1.193,0.672-1.931,0.672
		c-0.393,0-0.773-0.074-1.141-0.222c-0.368-0.148-0.695-0.359-0.983-0.634l-0.521,0.521c-0.051,0.051-0.111,0.077-0.182,0.077
		c-0.07,0-0.13-0.026-0.182-0.077s-0.077-0.111-0.077-0.182v-1.809c0-0.07,0.025-0.131,0.077-0.183
		C5.045,9.89,5.105,9.864,5.175,9.864h1.809c0.07,0,0.131,0.025,0.182,0.076c0.051,0.052,0.077,0.112,0.077,0.183
		c0,0.069-0.026,0.13-0.077,0.182l-0.553,0.553c0.191,0.178,0.408,0.315,0.65,0.412s0.494,0.146,0.755,0.146
		c0.361,0,0.698-0.088,1.009-0.263c0.312-0.175,0.563-0.416,0.752-0.723c0.029-0.046,0.101-0.203,0.214-0.473
		c0.021-0.062,0.062-0.093,0.121-0.093h0.775c0.034,0,0.064,0.013,0.091,0.038C11.006,9.929,11.019,9.958,11.019,9.993z
		 M11.119,6.763v1.81c0,0.07-0.025,0.131-0.076,0.182c-0.052,0.051-0.112,0.076-0.182,0.076h-1.81c-0.069,0-0.131-0.025-0.182-0.076
		S8.794,8.643,8.794,8.572S8.819,8.441,8.87,8.39l0.558-0.557C9.029,7.464,8.56,7.28,8.018,7.28c-0.361,0-0.697,0.087-1.009,0.263
		C6.696,7.717,6.446,7.958,6.258,8.265c-0.03,0.046-0.101,0.203-0.214,0.472C6.022,8.799,5.981,8.83,5.922,8.83H5.119
		c-0.035,0-0.065-0.012-0.091-0.038C5.002,8.767,4.99,8.736,4.99,8.701V8.673c0.175-0.721,0.538-1.306,1.09-1.754
		C6.632,6.47,7.278,6.246,8.018,6.246c0.393,0,0.776,0.075,1.147,0.224s0.701,0.36,0.989,0.632l0.525-0.521
		c0.051-0.051,0.111-0.077,0.182-0.077c0.069,0,0.13,0.026,0.182,0.077C11.094,6.632,11.119,6.693,11.119,6.763z"/>
</g>
</svg>
