<?xml version="1.0" encoding="utf-8"?>
<!-- Generator: Adobe Illustrator 16.0.0, SVG Export Plug-In . SVG Version: 6.00 Build 0)  -->
<!DOCTYPE svg PUBLIC "-//W3C//DTD SVG 1.1//EN" "http://www.w3.org/Graphics/SVG/1.1/DTD/svg11.dtd">
<svg version="1.1" id="Layer_1" xmlns="http://www.w3.org/2000/svg" xmlns:xlink="http://www.w3.org/1999/xlink" x="0px" y="0px"
	 width="16px" height="16px" viewBox="0 0 16 16" enable-background="new 0 0 16 16" xml:space="preserve">
<g>
	<path d="M12.688,3.068c0.125,0.125,0.232,0.295,0.32,0.509c0.09,0.214,0.135,0.411,0.135,0.589v10.668
		c0,0.178-0.062,0.33-0.188,0.455s-0.277,0.188-0.455,0.188h-9c-0.179,0-0.33-0.062-0.455-0.188s-0.188-0.277-0.188-0.455V1.166
		c0-0.178,0.062-0.33,0.188-0.455S3.321,0.523,3.5,0.523h6c0.178,0,0.375,0.045,0.59,0.134c0.213,0.09,0.383,0.197,0.508,0.321
		L12.688,3.068z M12.285,14.619V4.81H9.5c-0.18,0-0.33-0.062-0.455-0.188S8.857,4.345,8.857,4.166V1.381H3.715v13.238H12.285z
		 M9.715,1.435v2.518h2.518c-0.045-0.129-0.094-0.221-0.148-0.274L9.988,1.582C9.936,1.528,9.844,1.479,9.715,1.435z"/>
</g>
</svg>
