<?xml version="1.0" encoding="utf-8"?>
<!-- Generator: Adobe Illustrator 16.0.0, SVG Export Plug-In . SVG Version: 6.00 Build 0)  -->
<!DOCTYPE svg PUBLIC "-//W3C//DTD SVG 1.1//EN" "http://www.w3.org/Graphics/SVG/1.1/DTD/svg11.dtd">
<svg version="1.1" id="Layer_1" xmlns="http://www.w3.org/2000/svg" xmlns:xlink="http://www.w3.org/1999/xlink" x="0px" y="0px"
	 width="16px" height="16px" viewBox="0 0 16 16" enable-background="new 0 0 16 16" xml:space="preserve">
<g enable-background="new    ">
	<path d="M13.812,2.21c0.148,0.107,0.208,0.25,0.182,0.429l-1.715,10.285c-0.021,0.13-0.094,0.23-0.214,0.302
		c-0.063,0.035-0.132,0.054-0.208,0.054c-0.049,0-0.103-0.012-0.16-0.034l-3.033-1.238l-1.621,1.976
		c-0.081,0.103-0.19,0.153-0.328,0.153c-0.058,0-0.107-0.009-0.147-0.026c-0.085-0.031-0.153-0.084-0.204-0.157
		c-0.051-0.074-0.077-0.155-0.077-0.244V11.37l5.786-7.091l-7.159,6.194L2.269,9.389C2.103,9.326,2.014,9.203,2,9.021
		C1.992,8.842,2.063,8.71,2.215,8.625l11.143-6.429c0.067-0.04,0.139-0.061,0.215-0.061C13.661,2.136,13.742,2.161,13.812,2.21z"/>
</g>
</svg>
