<?xml version="1.0" encoding="utf-8"?>
<!-- Generator: Adobe Illustrator 16.0.0, SVG Export Plug-In . SVG Version: 6.00 Build 0)  -->
<!DOCTYPE svg PUBLIC "-//W3C//DTD SVG 1.1//EN" "http://www.w3.org/Graphics/SVG/1.1/DTD/svg11.dtd">
<svg version="1.1" id="Layer_1" xmlns="http://www.w3.org/2000/svg" xmlns:xlink="http://www.w3.org/1999/xlink" x="0px" y="0px"
	 width="16px" height="16px" viewBox="0 0 16 16" enable-background="new 0 0 16 16" xml:space="preserve">
<g>
	<path d="M13.571,8.566v2.785c0,0.059-0.021,0.108-0.063,0.15c-0.042,0.043-0.093,0.064-0.15,0.064h-1.5v1.07
		c0,0.179-0.062,0.331-0.188,0.456s-0.277,0.188-0.455,0.188H4.786c-0.179,0-0.331-0.062-0.456-0.188s-0.188-0.277-0.188-0.456
		v-1.07h-1.5c-0.058,0-0.107-0.021-0.15-0.064c-0.042-0.042-0.063-0.092-0.063-0.15V8.566c0-0.354,0.126-0.656,0.378-0.908
		C3.06,7.406,3.361,7.28,3.715,7.28h0.428V3.637c0-0.179,0.062-0.331,0.188-0.456s0.277-0.188,0.456-0.188h4.5
		c0.178,0,0.375,0.045,0.589,0.134c0.215,0.089,0.384,0.196,0.509,0.321l1.019,1.018c0.124,0.125,0.231,0.295,0.321,0.509
		c0.089,0.214,0.134,0.411,0.134,0.589V7.28h0.429c0.353,0,0.655,0.126,0.907,0.378C13.445,7.911,13.571,8.213,13.571,8.566z
		 M5,8.137h6V5.566H9.929c-0.179,0-0.33-0.062-0.455-0.188S9.286,5.102,9.286,4.923V3.852H5V8.137z M5,12.423h6v-1.714H5V12.423z
		 M12.587,8.867c0.085-0.085,0.128-0.186,0.128-0.301c0-0.117-0.043-0.217-0.128-0.302c-0.085-0.084-0.185-0.127-0.301-0.127
		s-0.217,0.042-0.302,0.127c-0.085,0.085-0.127,0.186-0.127,0.302c0,0.115,0.042,0.216,0.127,0.301s0.186,0.127,0.302,0.127
		S12.502,8.952,12.587,8.867z"/>
</g>
</svg>
