<?xml version="1.0" encoding="utf-8"?>
<!-- Generator: Adobe Illustrator 16.0.0, SVG Export Plug-In . SVG Version: 6.00 Build 0)  -->
<!DOCTYPE svg PUBLIC "-//W3C//DTD SVG 1.1//EN" "http://www.w3.org/Graphics/SVG/1.1/DTD/svg11.dtd">
<svg version="1.1" id="Layer_1" xmlns="http://www.w3.org/2000/svg" xmlns:xlink="http://www.w3.org/1999/xlink" x="0px" y="0px"
	 width="16px" height="16px" viewBox="0 0 16 16" enable-background="new 0 0 16 16" xml:space="preserve">
<path fill="#FFFFFF" d="M0.2,8.588c-0.034,0-0.06,0.025-0.064,0.063L0.019,9.537l0.117,0.871c0.004,0.037,0.03,0.062,0.064,0.062
	c0.032,0,0.058-0.025,0.063-0.062l0,0l0,0l0,0l0.138-0.872L0.263,8.65C0.258,8.613,0.231,8.588,0.2,8.588z M0.855,8.104
	C0.85,8.065,0.823,8.039,0.79,8.039S0.728,8.066,0.723,8.104c0,0-0.156,1.434-0.156,1.434l0.156,1.401
	c0.005,0.037,0.033,0.065,0.067,0.065c0.033,0,0.061-0.027,0.066-0.065l0.179-1.401L0.855,8.104z M3.329,6.781
	c-0.064,0-0.118,0.053-0.12,0.12L3.083,9.538l0.125,1.704c0.003,0.067,0.056,0.12,0.12,0.12c0.064,0,0.117-0.053,0.121-0.12l0,0
	l0.141-1.704L3.45,6.901C3.446,6.833,3.393,6.781,3.329,6.781z M2.049,7.698c-0.049,0-0.09,0.04-0.094,0.092l-0.14,1.747l0.14,1.691
	C1.959,11.28,2,11.319,2.049,11.319c0.049,0,0.089-0.039,0.094-0.091l0.16-1.691l-0.16-1.748C2.138,7.737,2.098,7.698,2.049,7.698z
	 M4.629,11.362c0.08,0,0.145-0.064,0.148-0.147L4.9,9.539L4.778,6.027C4.774,5.945,4.709,5.881,4.629,5.881
	c-0.08,0-0.146,0.064-0.148,0.146L4.373,9.539l0.108,1.676C4.484,11.298,4.549,11.362,4.629,11.362z M7.292,11.37
	c0.109,0,0.2-0.091,0.202-0.202v0.002v-0.002L7.581,9.54L7.495,5.484C7.493,5.373,7.402,5.283,7.292,5.283
	c-0.11,0-0.202,0.09-0.203,0.202L7.013,9.539c0,0.002,0.077,1.631,0.077,1.631C7.091,11.279,7.182,11.37,7.292,11.37z M5.951,11.364
	c0.095,0,0.173-0.077,0.175-0.176v0.002l0.104-1.651L6.125,6.002C6.124,5.904,6.046,5.828,5.95,5.828S5.777,5.904,5.775,6.002
	L5.682,9.54l0.093,1.649C5.777,11.287,5.854,11.364,5.951,11.364z M2.687,11.349c0.057,0,0.103-0.046,0.106-0.106l0.151-1.705
	L2.793,7.916c-0.004-0.06-0.05-0.105-0.106-0.105c-0.058,0-0.104,0.045-0.107,0.105L2.446,9.537l0.133,1.705
	C2.583,11.303,2.628,11.349,2.687,11.349z M1.417,11.255c0.042,0,0.075-0.033,0.08-0.078l0.169-1.64L1.497,7.836
	C1.492,7.791,1.458,7.758,1.417,7.758c-0.042,0-0.076,0.033-0.08,0.078L1.188,9.537l0.149,1.639
	C1.341,11.222,1.374,11.255,1.417,11.255z M6.619,5.943c-0.104,0-0.187,0.083-0.189,0.188L6.345,9.54l0.084,1.639
	c0.002,0.105,0.085,0.188,0.189,0.188s0.187-0.082,0.189-0.188v0.002l0.095-1.64L6.808,6.131C6.805,6.026,6.723,5.943,6.619,5.943z
	 M3.977,11.365c0.072,0,0.131-0.059,0.134-0.134l0.132-1.692L4.111,6.297C4.107,6.223,4.048,6.164,3.977,6.164
	c-0.072,0-0.131,0.059-0.135,0.133c0,0-0.116,3.242-0.116,3.242l0.116,1.693C3.845,11.307,3.904,11.365,3.977,11.365z M5.449,11.206
	v-0.002l0.113-1.665l-0.113-3.63c-0.003-0.09-0.074-0.161-0.162-0.161c-0.088,0-0.159,0.071-0.162,0.161l-0.101,3.63l0.102,1.666
	c0.002,0.09,0.073,0.16,0.161,0.16C5.375,11.365,5.446,11.295,5.449,11.206L5.449,11.206z M14.02,7.446
	c-0.271,0-0.526,0.055-0.761,0.153c-0.156-1.77-1.64-3.158-3.45-3.158c-0.443,0-0.875,0.087-1.256,0.234
	C8.404,4.734,8.365,4.792,8.364,4.907v6.233c0.001,0.119,0.095,0.219,0.212,0.231c0.005,0.001,5.407,0.003,5.443,0.003
	c1.085,0,1.964-0.879,1.964-1.964C15.982,8.326,15.104,7.446,14.02,7.446z M7.962,4.901c-0.118,0-0.215,0.097-0.216,0.216
	L7.657,9.541l0.089,1.605c0.001,0.116,0.099,0.213,0.216,0.213c0.118,0,0.214-0.097,0.216-0.215v0.002l0.097-1.605L8.178,5.117
	C8.177,4.999,8.081,4.901,7.962,4.901z"/>
</svg>
