<?xml version="1.0" encoding="utf-8"?>
<!-- Generator: Adobe Illustrator 16.0.0, SVG Export Plug-In . SVG Version: 6.00 Build 0)  -->
<!DOCTYPE svg PUBLIC "-//W3C//DTD SVG 1.1//EN" "http://www.w3.org/Graphics/SVG/1.1/DTD/svg11.dtd">
<svg version="1.1" id="Layer_1" xmlns="http://www.w3.org/2000/svg" xmlns:xlink="http://www.w3.org/1999/xlink" x="0px" y="0px"
	 width="16px" height="16px" viewBox="0 0 16 16" enable-background="new 0 0 16 16" xml:space="preserve">
<g>
	<path fill="#FFFFFF" d="M8.467,1.102v3.582h3.36v2.225h-3.36v3.638c0,0.821,0.037,1.348,0.129,1.587
		c0.083,0.231,0.249,0.416,0.48,0.555c0.313,0.193,0.674,0.286,1.08,0.286c0.72,0,1.431-0.231,2.142-0.702v2.234
		c-0.609,0.286-1.154,0.489-1.644,0.6c-0.489,0.12-1.024,0.176-1.597,0.176c-0.646,0-1.219-0.083-1.718-0.249
		c-0.498-0.157-0.923-0.397-1.273-0.692c-0.351-0.305-0.601-0.628-0.729-0.97c-0.139-0.342-0.203-0.84-0.203-1.486V6.908H3.564
		V4.904C4.118,4.72,4.599,4.462,4.995,4.129c0.397-0.341,0.711-0.747,0.951-1.218c0.24-0.48,0.406-1.08,0.498-1.81H8.467z"/>
</g>
</svg>
