<?xml version="1.0" encoding="utf-8"?>
<!-- Generator: Adobe Illustrator 16.0.0, SVG Export Plug-In . SVG Version: 6.00 Build 0)  -->
<!DOCTYPE svg PUBLIC "-//W3C//DTD SVG 1.1//EN" "http://www.w3.org/Graphics/SVG/1.1/DTD/svg11.dtd">
<svg version="1.1" id="Layer_1" xmlns="http://www.w3.org/2000/svg" xmlns:xlink="http://www.w3.org/1999/xlink" x="0px" y="0px"
	 width="16px" height="16px" viewBox="0 0 16 16" enable-background="new 0 0 16 16" xml:space="preserve">
<g enable-background="new    ">
	<path d="M14.28,4.856c0.011,0.14,0.011,0.279,0.011,0.42c0,4.268-3.248,9.185-9.186,9.185c-1.829,0-3.528-0.529-4.957-1.449
		c0.26,0.03,0.51,0.04,0.779,0.04c1.509,0,2.898-0.51,4.008-1.379c-1.419-0.03-2.608-0.96-3.018-2.239
		c0.2,0.03,0.399,0.05,0.609,0.05c0.29,0,0.58-0.04,0.85-0.109c-1.479-0.3-2.588-1.6-2.588-3.169c0-0.01,0-0.029,0-0.04
		c0.43,0.24,0.929,0.391,1.459,0.41c-0.87-0.58-1.439-1.569-1.439-2.688c0-0.6,0.16-1.149,0.439-1.629
		c1.589,1.959,3.978,3.238,6.656,3.378c-0.05-0.24-0.08-0.489-0.08-0.739c0-1.779,1.439-3.229,3.229-3.229
		c0.93,0,1.769,0.39,2.358,1.02c0.729-0.14,1.429-0.41,2.049-0.779c-0.239,0.749-0.749,1.379-1.419,1.778
		c0.649-0.069,1.279-0.25,1.858-0.499C15.46,3.827,14.91,4.396,14.28,4.856z"/>
</g>
</svg>
