<?xml version="1.0" encoding="utf-8"?>
<!-- Generator: Adobe Illustrator 16.0.0, SVG Export Plug-In . SVG Version: 6.00 Build 0)  -->
<!DOCTYPE svg PUBLIC "-//W3C//DTD SVG 1.1//EN" "http://www.w3.org/Graphics/SVG/1.1/DTD/svg11.dtd">
<svg version="1.1" id="Layer_1" xmlns="http://www.w3.org/2000/svg" xmlns:xlink="http://www.w3.org/1999/xlink" x="0px" y="0px"
	 width="16px" height="16px" viewBox="0 0 16 16" enable-background="new 0 0 16 16" xml:space="preserve">
<g>
	<path fill="#FFFFFF" d="M13.848,5.492c0.01,0.13,0.01,0.261,0.01,0.392c0,3.981-3.03,8.568-8.568,8.568
		c-1.706,0-3.291-0.494-4.624-1.352c0.242,0.027,0.476,0.037,0.727,0.037c1.408,0,2.704-0.476,3.739-1.287
		c-1.324-0.027-2.434-0.895-2.815-2.088C2.502,9.79,2.688,9.809,2.884,9.809c0.271,0,0.541-0.038,0.792-0.103
		C2.297,9.426,1.262,8.214,1.262,6.75c0-0.01,0-0.028,0-0.038c0.4,0.224,0.867,0.364,1.361,0.382C1.812,6.555,1.28,5.631,1.28,4.587
		c0-0.56,0.149-1.072,0.41-1.52c1.482,1.827,3.711,3.021,6.209,3.151c-0.046-0.224-0.074-0.457-0.074-0.69
		c0-1.659,1.343-3.011,3.012-3.011c0.867,0,1.649,0.364,2.2,0.951c0.681-0.131,1.333-0.382,1.911-0.728
		c-0.224,0.699-0.699,1.287-1.324,1.66c0.606-0.065,1.193-0.233,1.734-0.466C14.948,4.531,14.436,5.063,13.848,5.492z"/>
</g>
</svg>
