<?xml version="1.0" encoding="utf-8"?>
<!-- Generator: Adobe Illustrator 16.0.0, SVG Export Plug-In . SVG Version: 6.00 Build 0)  -->
<!DOCTYPE svg PUBLIC "-//W3C//DTD SVG 1.1//EN" "http://www.w3.org/Graphics/SVG/1.1/DTD/svg11.dtd">
<svg version="1.1" id="Layer_1" xmlns="http://www.w3.org/2000/svg" xmlns:xlink="http://www.w3.org/1999/xlink" x="0px" y="0px"
	 width="16px" height="16px" viewBox="0 0 16 16" enable-background="new 0 0 16 16" xml:space="preserve">
<g>
	<path fill="#FFFFFF" d="M15.188,12.41c0,1.477-1.198,2.676-2.676,2.676H3.591c-1.478,0-2.676-1.199-2.676-2.676V3.489
		c0-1.478,1.199-2.676,2.676-2.676h8.921c1.478,0,2.676,1.199,2.676,2.676V12.41z M12.372,4.316
		c-0.381-0.483-1.18-0.502-1.737-0.418c-0.446,0.075-1.971,0.744-2.481,2.351c0.911-0.074,1.394,0.065,1.302,1.069
		C9.418,7.745,9.203,8.2,8.971,8.646c-0.278,0.511-0.79,1.515-1.468,0.789c-0.604-0.65-0.567-1.895-0.697-2.722
		C6.723,6.249,6.639,5.672,6.49,5.189C6.36,4.78,6.053,4.288,5.691,4.176c-0.399-0.111-0.892,0.065-1.18,0.232
		C3.6,4.948,2.996,5.709,2.104,6.342v0.065c0.297,0.148,0.205,0.39,0.437,0.427c0.548,0.074,1.069-0.511,1.431,0.103
		c0.223,0.372,0.288,0.78,0.428,1.18C4.594,8.655,4.734,9.24,4.892,9.854c0.26,1.05,0.576,2.611,1.487,2.992
		c0.456,0.195,1.152-0.065,1.496-0.279c0.948-0.558,1.701-1.366,2.324-2.202c1.459-1.951,2.248-4.182,2.369-4.823
		C12.651,5.105,12.642,4.66,12.372,4.316z"/>
</g>
</svg>
