<?xml version="1.0" encoding="utf-8"?>
<!-- Generator: Adobe Illustrator 16.0.0, SVG Export Plug-In . SVG Version: 6.00 Build 0)  -->
<!DOCTYPE svg PUBLIC "-//W3C//DTD SVG 1.1//EN" "http://www.w3.org/Graphics/SVG/1.1/DTD/svg11.dtd">
<svg version="1.1" id="Layer_1" xmlns="http://www.w3.org/2000/svg" xmlns:xlink="http://www.w3.org/1999/xlink" x="0px" y="0px"
	 width="16px" height="16px" viewBox="0 0 16 16" enable-background="new 0 0 16 16" xml:space="preserve">
<g enable-background="new    ">
	<path d="M15.984,12.994c0,1.654-1.342,2.997-2.997,2.997h-9.99C1.342,15.991,0,14.648,0,12.994v-9.99
		C0,1.35,1.342,0.007,2.997,0.007h9.99c1.655,0,2.997,1.343,2.997,2.997V12.994z M12.831,3.93c-0.427-0.541-1.321-0.562-1.946-0.468
		C10.386,3.545,8.68,4.294,8.106,6.095c1.021-0.083,1.562,0.072,1.457,1.196C9.521,7.771,9.283,8.28,9.022,8.779
		c-0.312,0.572-0.885,1.696-1.644,0.885C6.702,8.936,6.743,7.541,6.598,6.615C6.504,6.095,6.41,5.449,6.244,4.908
		C6.098,4.45,5.755,3.898,5.349,3.774C4.901,3.649,4.35,3.847,4.027,4.034c-1.02,0.604-1.696,1.457-2.695,2.164v0.073
		C1.665,6.438,1.561,6.709,1.821,6.75c0.614,0.083,1.197-0.572,1.603,0.114c0.25,0.417,0.322,0.875,0.479,1.322
		c0.219,0.604,0.375,1.259,0.552,1.946c0.291,1.176,0.645,2.924,1.665,3.351c0.51,0.219,1.29-0.073,1.675-0.312
		c1.061-0.624,1.905-1.529,2.602-2.466c1.633-2.186,2.518-4.684,2.653-5.401C13.144,4.814,13.133,4.315,12.831,3.93z"/>
</g>
</svg>
