<?xml version="1.0" encoding="utf-8"?>
<!-- Generator: Adobe Illustrator 16.0.0, SVG Export Plug-In . SVG Version: 6.00 Build 0)  -->
<!DOCTYPE svg PUBLIC "-//W3C//DTD SVG 1.1//EN" "http://www.w3.org/Graphics/SVG/1.1/DTD/svg11.dtd">
<svg version="1.1" id="Layer_1" xmlns="http://www.w3.org/2000/svg" xmlns:xlink="http://www.w3.org/1999/xlink" x="0px" y="0px"
	 width="16px" height="16px" viewBox="0 0 16 16" enable-background="new 0 0 16 16" xml:space="preserve">
<g enable-background="new    ">
	<path d="M14.424,14.481c-0.169,0.704-0.739,1.221-1.426,1.292c-1.639,0.188-3.297,0.188-4.945,0.188s-3.306,0-4.946-0.188
		c-0.686-0.071-1.265-0.588-1.426-1.292C1.45,13.483,1.45,12.388,1.45,11.363c0-1.034,0.009-2.121,0.231-3.119
		c0.169-0.704,0.74-1.221,1.435-1.301c1.63-0.179,3.288-0.179,4.937-0.179s3.307,0,4.945,0.179c0.687,0.08,1.266,0.597,1.426,1.301
		c0.232,0.998,0.232,2.085,0.232,3.119C14.656,12.388,14.646,13.483,14.424,14.481z M5.219,9.144V8.307h-2.78v0.837h0.936v5.071
		h0.891V9.144H5.219z M6.671-0.008L5.593,3.548v2.415H4.702V3.548c-0.08-0.437-0.258-1.061-0.543-1.89
		c-0.196-0.552-0.392-1.113-0.58-1.666h0.945l0.633,2.344l0.606-2.344H6.671z M7.625,14.215V9.812H6.832v3.368
		c-0.178,0.249-0.348,0.374-0.508,0.374c-0.107,0-0.169-0.062-0.188-0.187c-0.009-0.027-0.009-0.125-0.009-0.312V9.812H5.335v3.484
		c0,0.312,0.026,0.517,0.071,0.65c0.071,0.223,0.258,0.329,0.517,0.329c0.285,0,0.588-0.178,0.909-0.543v0.481H7.625z M9.06,4.52
		c0,0.472-0.08,0.828-0.249,1.051C8.588,5.873,8.275,6.025,7.866,6.025c-0.401,0-0.713-0.152-0.936-0.455
		C6.761,5.339,6.681,4.991,6.681,4.52V2.96c0-0.473,0.08-0.82,0.249-1.043c0.223-0.303,0.535-0.454,0.936-0.454
		c0.41,0,0.722,0.151,0.945,0.454C8.979,2.14,9.06,2.487,9.06,2.96V4.52z M8.249,2.799c0-0.409-0.116-0.614-0.383-0.614
		c-0.258,0-0.383,0.205-0.383,0.614v1.872c0,0.409,0.125,0.623,0.383,0.623c0.267,0,0.383-0.214,0.383-0.623V2.799z M10.654,11.14
		c0-0.409-0.018-0.704-0.08-0.882c-0.098-0.33-0.32-0.499-0.633-0.499c-0.293,0-0.57,0.16-0.828,0.481V8.307H8.32v5.908h0.793
		v-0.428c0.268,0.329,0.543,0.489,0.828,0.489c0.312,0,0.535-0.169,0.633-0.489c0.062-0.188,0.08-0.481,0.08-0.892V11.14z
		 M9.861,12.958c0,0.401-0.115,0.597-0.348,0.597c-0.133,0-0.267-0.062-0.4-0.195v-2.683c0.134-0.134,0.268-0.196,0.4-0.196
		c0.232,0,0.348,0.205,0.348,0.598V12.958z M12.045,5.963h-0.811v-0.49c-0.321,0.374-0.624,0.553-0.918,0.553
		c-0.259,0-0.445-0.107-0.525-0.33C9.746,5.562,9.719,5.348,9.719,5.027V1.516h0.812v3.271c0,0.188,0,0.294,0.009,0.312
		c0.018,0.124,0.08,0.195,0.188,0.195c0.16,0,0.329-0.124,0.508-0.383V1.516h0.811V5.963z M13.667,12.69h-0.812
		c0,0.321-0.009,0.499-0.018,0.544c-0.045,0.214-0.16,0.32-0.356,0.32c-0.276,0-0.409-0.205-0.409-0.614v-0.775h1.595v-0.918
		c0-0.473-0.081-0.812-0.241-1.034c-0.231-0.303-0.543-0.454-0.944-0.454c-0.409,0-0.722,0.151-0.953,0.454
		c-0.169,0.223-0.25,0.562-0.25,1.034v1.542c0,0.472,0.089,0.819,0.259,1.033c0.231,0.303,0.543,0.454,0.963,0.454
		c0.418,0,0.748-0.16,0.962-0.472c0.098-0.143,0.169-0.303,0.187-0.481c0.019-0.08,0.019-0.259,0.019-0.517V12.69z M12.873,11.496
		h-0.801v-0.409c0-0.401,0.133-0.606,0.4-0.606s0.4,0.205,0.4,0.606V11.496z"/>
</g>
</svg>
