<?xml version="1.0" encoding="utf-8"?>
<!-- Generator: Adobe Illustrator 16.0.0, SVG Export Plug-In . SVG Version: 6.00 Build 0)  -->
<!DOCTYPE svg PUBLIC "-//W3C//DTD SVG 1.1//EN" "http://www.w3.org/Graphics/SVG/1.1/DTD/svg11.dtd">
<svg version="1.1" id="Layer_1" xmlns="http://www.w3.org/2000/svg" xmlns:xlink="http://www.w3.org/1999/xlink" x="0px" y="0px"
	 width="16px" height="16px" viewBox="0 0 16 16" enable-background="new 0 0 16 16" xml:space="preserve">
<g>
	<path fill="#FFFFFF" d="M13.915,14.121c-0.157,0.654-0.688,1.135-1.325,1.201c-1.524,0.174-3.065,0.174-4.599,0.174
		c-1.533,0-3.074,0-4.599-0.174c-0.638-0.066-1.176-0.547-1.326-1.201c-0.215-0.929-0.215-1.947-0.215-2.9
		c0-0.961,0.008-1.972,0.215-2.899c0.158-0.655,0.688-1.136,1.334-1.21c1.517-0.166,3.058-0.166,4.59-0.166
		c1.533,0,3.074,0,4.599,0.166c0.638,0.074,1.177,0.555,1.325,1.21c0.216,0.928,0.216,1.938,0.216,2.899
		C14.131,12.174,14.122,13.192,13.915,14.121z M5.356,9.157V8.379H2.771v0.778h0.87v4.715H4.47V9.157H5.356z M6.707,0.648
		L5.705,3.955V6.2H4.876V3.955c-0.075-0.406-0.24-0.986-0.505-1.757C4.188,1.684,4.006,1.162,3.832,0.648H4.71l0.588,2.179
		l0.563-2.179H6.707z M7.594,13.872V9.779H6.856v3.132c-0.166,0.231-0.323,0.348-0.472,0.348c-0.1,0-0.157-0.058-0.174-0.174
		c-0.008-0.024-0.008-0.116-0.008-0.29V9.779H5.464v3.239c0,0.29,0.024,0.48,0.066,0.605c0.066,0.207,0.24,0.306,0.48,0.306
		c0.265,0,0.547-0.165,0.845-0.505v0.447H7.594z M8.928,4.857c0,0.439-0.075,0.771-0.232,0.978C8.488,6.117,8.198,6.258,7.817,6.258
		c-0.373,0-0.663-0.141-0.87-0.423C6.79,5.62,6.715,5.296,6.715,4.857v-1.45c0-0.439,0.075-0.763,0.232-0.97
		c0.207-0.282,0.497-0.422,0.87-0.422c0.381,0,0.671,0.141,0.878,0.422c0.157,0.207,0.232,0.53,0.232,0.97V4.857z M8.174,3.258
		c0-0.381-0.108-0.572-0.356-0.572c-0.24,0-0.356,0.191-0.356,0.572v1.74c0,0.381,0.116,0.58,0.356,0.58
		c0.248,0,0.356-0.199,0.356-0.58V3.258z M10.41,11.014c0-0.381-0.017-0.654-0.074-0.82c-0.091-0.307-0.298-0.464-0.588-0.464
		c-0.273,0-0.53,0.149-0.771,0.447V8.379H8.24v5.493h0.737v-0.397c0.248,0.307,0.505,0.455,0.771,0.455
		c0.29,0,0.497-0.157,0.588-0.455c0.058-0.174,0.074-0.447,0.074-0.829V11.014z M9.673,12.704c0,0.373-0.107,0.555-0.323,0.555
		c-0.124,0-0.248-0.058-0.372-0.182v-2.494C9.102,10.459,9.226,10.4,9.35,10.4c0.216,0,0.323,0.19,0.323,0.556V12.704z M11.703,6.2
		h-0.754V5.744c-0.299,0.348-0.58,0.514-0.854,0.514c-0.24,0-0.414-0.1-0.489-0.307C9.565,5.827,9.541,5.628,9.541,5.33V2.065h0.754
		v3.041c0,0.174,0,0.273,0.008,0.29c0.017,0.116,0.074,0.182,0.174,0.182c0.149,0,0.307-0.116,0.473-0.356V2.065h0.754V6.2z
		 M13.211,12.455h-0.754c0,0.299-0.008,0.464-0.017,0.506c-0.041,0.198-0.149,0.298-0.331,0.298c-0.257,0-0.382-0.19-0.382-0.571
		v-0.721h1.483v-0.854c0-0.439-0.074-0.754-0.224-0.961c-0.216-0.282-0.505-0.423-0.878-0.423c-0.382,0-0.672,0.141-0.887,0.423
		c-0.157,0.207-0.232,0.521-0.232,0.961v1.434c0,0.438,0.083,0.762,0.24,0.961c0.216,0.281,0.506,0.422,0.896,0.422
		c0.389,0,0.695-0.148,0.895-0.438c0.091-0.133,0.157-0.282,0.174-0.447c0.017-0.075,0.017-0.24,0.017-0.48V12.455z M12.474,11.345
		h-0.746v-0.381c0-0.373,0.125-0.563,0.373-0.563c0.249,0,0.373,0.19,0.373,0.563V11.345z"/>
</g>
</svg>
