<?xml version="1.0" encoding="utf-8"?>
<!-- Generator: Adobe Illustrator 16.0.0, SVG Export Plug-In . SVG Version: 6.00 Build 0)  -->
<!DOCTYPE svg PUBLIC "-//W3C//DTD SVG 1.1//EN" "http://www.w3.org/Graphics/SVG/1.1/DTD/svg11.dtd">
<svg version="1.1" id="Ebene_1" xmlns="http://www.w3.org/2000/svg" xmlns:xlink="http://www.w3.org/1999/xlink" x="0px" y="0px"
	 width="217.289px" height="156.836px" viewBox="0 0 217.289 156.836" enable-background="new 0 0 217.289 156.836"
	 xml:space="preserve">
<path d="M189.933,128.075l9.162,23.309l9.033-23.309h7.029v0.979c-0.938,0.512-2.13,1.065-3.238,1.362l2.94,24.119
	c0.896,0.34,1.746,0.809,2.429,1.277v1.021h-9.332v-0.979c0.896-0.555,2.088-1.107,3.237-1.363l-2.471-22.584h-0.043l-9.546,24.928
	h-1.745l-9.632-24.629h-0.041l-1.618,22.412c1.276,0.342,2.214,0.725,3.065,1.236v0.979H180.9v-1.021
	c0.768-0.512,1.619-0.938,2.344-1.193l2.971-24.105l-62.012,26.322H42.152L0,57.533L135.542,0 M188.707,128.34L134.847,1.653
	L1.503,58.122l41.391,97.828l81.047-0.172"/>
</svg>
